<mxfile host="app.diagrams.net" modified="2023-12-15T02:43:32.675Z" agent="Mozilla/5.0 (Windows NT 10.0; Win64; x64) AppleWebKit/537.36 (KHTML, like Gecko) Chrome/120.0.0.0 Safari/537.36" version="22.1.8" etag="OFeTWyranNC62fk31VbJ" type="github">
  <diagram name="第 1 页" id="XttNAyya1as32GIXAVE6">
    <mxGraphModel>
      <root>
        <mxCell id="0" />
        <mxCell id="1" parent="0" />
      </root>
    </mxGraphModel>
  </diagram>
</mxfile>
